<svg xmlns="http://www.w3.org/2000/svg" viewBox="0 0 200 200" className="w-full h-full">
  <defs>
    <!-- Gradient for the main document -->
    <linearGradient id="documentGradient" x1="0%" y1="0%" x2="100%" y2="100%">
      <stop offset="0%" style="stop-color:#3B82F6;stop-opacity:1" />
      <stop offset="100%" style="stop-color:#8B5CF6;stop-opacity:1" />
    </linearGradient>
    
    <!-- Gradient for AI elements -->
    <linearGradient id="aiGradient" x1="0%" y1="0%" x2="100%" y2="100%">
      <stop offset="0%" style="stop-color:#10B981;stop-opacity:1" />
      <stop offset="100%" style="stop-color:#06B6D4;stop-opacity:1" />
    </linearGradient>
    
    <!-- Shadow filter -->
    <filter id="shadow" x="-20%" y="-20%" width="140%" height="140%">
      <feDropShadow dx="2" dy="4" stdDeviation="3" flood-color="#000000" flood-opacity="0.2"/>
    </filter>
  </defs>
  
  <!-- Background circle -->
  <circle cx="100" cy="100" r="95" fill="url(#documentGradient)" filter="url(#shadow)"/>
  
  <!-- Main document shape -->
  <rect x="50" y="40" width="80" height="100" rx="8" ry="8" fill="white" opacity="0.95"/>
  
  <!-- Document header lines -->
  <rect x="60" y="55" width="40" height="3" rx="1.5" fill="url(#documentGradient)" opacity="0.8"/>
  <rect x="60" y="65" width="60" height="2" rx="1" fill="#6B7280" opacity="0.6"/>
  
  <!-- Document content lines -->
  <rect x="60" y="80" width="55" height="2" rx="1" fill="#6B7280" opacity="0.5"/>
  <rect x="60" y="88" width="50" height="2" rx="1" fill="#6B7280" opacity="0.5"/>
  <rect x="60" y="96" width="58" height="2" rx="1" fill="#6B7280" opacity="0.5"/>
  <rect x="60" y="104" width="45" height="2" rx="1" fill="#6B7280" opacity="0.5"/>
  
  <!-- Skills/bullets section -->
  <circle cx="65" cy="118" r="2" fill="url(#aiGradient)"/>
  <rect x="72" y="116" width="35" height="2" rx="1" fill="#6B7280" opacity="0.5"/>
  
  <circle cx="65" cy="126" r="2" fill="url(#aiGradient)"/>
  <rect x="72" y="124" width="40" height="2" rx="1" fill="#6B7280" opacity="0.5"/>
  
  <!-- AI brain/neural network element -->
  <g transform="translate(140, 60)">
    <!-- Central AI node -->
    <circle cx="0" cy="0" r="8" fill="url(#aiGradient)" opacity="0.9"/>
    
    <!-- Neural connections -->
    <line x1="-6" y1="-6" x2="6" y2="6" stroke="url(#aiGradient)" stroke-width="2" opacity="0.7"/>
    <line x1="6" y1="-6" x2="-6" y2="6" stroke="url(#aiGradient)" stroke-width="2" opacity="0.7"/>
    
    <!-- Outer nodes -->
    <circle cx="-12" cy="-12" r="3" fill="url(#aiGradient)" opacity="0.8"/>
    <circle cx="12" cy="-12" r="3" fill="url(#aiGradient)" opacity="0.8"/>
    <circle cx="-12" cy="12" r="3" fill="url(#aiGradient)" opacity="0.8"/>
    <circle cx="12" cy="12" r="3" fill="url(#aiGradient)" opacity="0.8"/>
    
    <!-- Connection lines -->
    <line x1="-8" y1="-8" x2="-12" y2="-12" stroke="url(#aiGradient)" stroke-width="1.5" opacity="0.6"/>
    <line x1="8" y1="-8" x2="12" y2="-12" stroke="url(#aiGradient)" stroke-width="1.5" opacity="0.6"/>
    <line x1="-8" y1="8" x2="-12" y2="12" stroke="url(#aiGradient)" stroke-width="1.5" opacity="0.6"/>
    <line x1="8" y1="8" x2="12" y2="12" stroke="url(#aiGradient)" stroke-width="1.5" opacity="0.6"/>
  </g>
  
  <!-- Sparkle/magic elements -->
  <g transform="translate(70, 30)">
    <path d="M0,-6 L2,0 L0,6 L-2,0 Z" fill="url(#aiGradient)" opacity="0.8"/>
    <path d="M-6,0 L0,2 L6,0 L0,-2 Z" fill="url(#aiGradient)" opacity="0.8"/>
  </g>
  
  <g transform="translate(150, 140)">
    <path d="M0,-4 L1.5,0 L0,4 L-1.5,0 Z" fill="url(#aiGradient)" opacity="0.7"/>
    <path d="M-4,0 L0,1.5 L4,0 L0,-1.5 Z" fill="url(#aiGradient)" opacity="0.7"/>
  </g>
  
  <!-- Enhancement glow effect -->
  <circle cx="100" cy="100" r="90" fill="none" stroke="url(#aiGradient)" stroke-width="1" opacity="0.3"/>
</svg>